<?xml version="1.0" encoding="UTF-8" standalone="no"?>
<!-- Created with Inkscape (http://www.inkscape.org/) -->

<svg
   xmlns:dc="http://purl.org/dc/elements/1.1/"
   xmlns:cc="http://creativecommons.org/ns#"
   xmlns:rdf="http://www.w3.org/1999/02/22-rdf-syntax-ns#"
   xmlns:svg="http://www.w3.org/2000/svg"
   xmlns="http://www.w3.org/2000/svg"
   xmlns:sodipodi="http://sodipodi.sourceforge.net/DTD/sodipodi-0.dtd"
   xmlns:inkscape="http://www.inkscape.org/namespaces/inkscape"
   width="80.292221mm"
   height="51.292217mm"
   viewBox="0 0 284.5 181.74408"
   id="svg7012"
   version="1.1"
   inkscape:version="0.91 r13725"
   sodipodi:docname="deploymentPEinApp1.svg">
  <defs
     id="defs7014">
    <linearGradient
       gradientUnits="userSpaceOnUse"
       y2="12901"
       x2="5500"
       y1="10000"
       x1="5500"
       id="gradient1">
      <stop
         id="stop4396"
         style="stop-color:rgb(235,245,255)"
         offset="0" />
      <stop
         id="stop4398"
         style="stop-color:rgb(235,245,255)"
         offset="1" />
    </linearGradient>
    <linearGradient
       gradientUnits="userSpaceOnUse"
       y2="12601"
       x2="5500"
       y1="10900"
       x1="5500"
       id="gradient2">
      <stop
         id="stop4422"
         style="stop-color:rgb(200,220,255)"
         offset="0" />
      <stop
         id="stop4424"
         style="stop-color:rgb(200,220,255)"
         offset="1" />
    </linearGradient>
    <mask
       id="mask1">
      <g
         id="g4446">
        <defs
           id="defs4448">
          <linearGradient
             gradientUnits="userSpaceOnUse"
             y2="12201"
             x2="7000"
             y1="11300"
             x1="7000"
             id="gradient3">
            <stop
               id="stop4451"
               style="stop-color:rgb(128,128,128)"
               offset="0.5" />
            <stop
               id="stop4453"
               style="stop-color:rgb(128,128,128)"
               offset="0.5" />
            <stop
               id="stop4455"
               style="stop-color:rgb(128,128,128)"
               offset="1" />
            <stop
               id="stop4457"
               style="stop-color:rgb(128,128,128)"
               offset="1" />
          </linearGradient>
        </defs>
        <path
           id="path4459"
           d="m 5400,11300 3200,0 0,901 -3200,0 0,-901 z"
           style="fill:url(#gradient3)"
           inkscape:connector-curvature="0" />
      </g>
    </mask>
    <linearGradient
       gradientUnits="userSpaceOnUse"
       y2="12201"
       x2="7000"
       y1="11300"
       x1="7000"
       id="gradient4">
      <stop
         id="stop4468"
         style="stop-color:rgb(255,153,153)"
         offset="0" />
      <stop
         id="stop4470"
         style="stop-color:rgb(255,153,153)"
         offset="1" />
    </linearGradient>
    <clipPath
       clipPathUnits="userSpaceOnUse"
       id="clip_path_3">
      <path
         id="path4492"
         d="m 7000,13400 c -873,0 -1600,96 -1600,212 l 0,1276 c 0,116 727,213 1600,213 873,0 1601,-97 1601,-213 l 0,-1276 c 0,-116 -728,-212 -1601,-212 l 0,0 z"
         inkscape:connector-curvature="0" />
    </clipPath>
    <clipPath
       clipPathUnits="userSpaceOnUse"
       id="clip_path_4">
      <path
         id="path4503"
         d="m 7000,13400 c -873,0 -1600,96 -1600,212 0,116 727,213 1600,213 873,0 1601,-97 1601,-213 0,-116 -728,-212 -1601,-212 l 0,0 z"
         inkscape:connector-curvature="0" />
    </clipPath>
  </defs>
  <sodipodi:namedview
     id="base"
     pagecolor="#ffffff"
     bordercolor="#666666"
     borderopacity="1.0"
     inkscape:pageopacity="0.0"
     inkscape:pageshadow="2"
     inkscape:zoom="1.979899"
     inkscape:cx="55.868638"
     inkscape:cy="188.45331"
     inkscape:document-units="px"
     inkscape:current-layer="layer1"
     showgrid="false"
     fit-margin-top="0"
     fit-margin-left="0"
     fit-margin-right="0"
     fit-margin-bottom="0"
     inkscape:window-width="1920"
     inkscape:window-height="1017"
     inkscape:window-x="-8"
     inkscape:window-y="145"
     inkscape:window-maximized="1" />
  <metadata
     id="metadata7017">
    <rdf:RDF>
      <cc:Work
         rdf:about="">
        <dc:format>image/svg+xml</dc:format>
        <dc:type
           rdf:resource="http://purl.org/dc/dcmitype/StillImage" />
        <dc:title></dc:title>
      </cc:Work>
    </rdf:RDF>
  </metadata>
  <g
     inkscape:label="Ebene 1"
     inkscape:groupmode="layer"
     id="layer1"
     transform="translate(-400.60715,-287.20445)">
    <g
       style="fill-rule:evenodd;stroke-width:28.22200012;stroke-linejoin:round"
       id="g4384"
       class="Group"
       transform="matrix(0.03543307,0,0,0.03543307,347.95754,-66.626255)">
      <g
         id="g4386"
         class="com.sun.star.drawing.CustomShape">
        <g
           id="id4">
          <rect
             id="rect4389"
             height="2904"
             width="8004"
             y="9999"
             x="1499"
             class="BoundingBox"
             style="fill:none;stroke:none" />
          <g
             id="g4391">
            <defs
               id="defs4393" />
            <path
               id="path4400"
               d="m 1771,10000 -25,2 -26,4 -25,7 -24,10 -23,12 -23,15 -21,16 -19,19 -19,19 -16,21 -15,23 -12,23 -10,24 -7,25 -4,26 -2,25 0,2358 2,25 4,26 7,25 10,24 12,23 15,23 16,21 19,20 19,18 21,17 23,14 23,13 24,10 25,7 26,4 25,2 7458,0 25,-2 26,-4 25,-7 24,-10 23,-13 23,-14 21,-17 20,-18 18,-20 17,-21 14,-23 13,-23 10,-24 7,-25 4,-26 2,-25 0,-2358 -2,-25 -4,-26 -7,-25 -10,-24 -13,-23 -14,-23 -17,-21 -18,-19 -20,-19 -21,-16 -23,-15 -23,-12 -24,-10 -25,-7 -26,-4 -25,-2 -7458,0 z"
               style="fill:url(#gradient1)"
               inkscape:connector-curvature="0" />
          </g>
          <path
             id="path4402"
             d="m 1771,10000 c -136,0 -271,135 -271,271 l 0,2358 c 0,136 135,272 271,272 l 7458,0 c 136,0 272,-136 272,-272 l 0,-2358 c 0,-136 -136,-271 -272,-271 l -7458,0 z"
             inkscape:connector-curvature="0"
             style="fill:none;stroke:#000032" />
          <text
             id="text4404"
             class="TextShape">
            <tspan
               id="tspan4406"
               font-weight="400"
               font-size="370px"
               class="TextParagraph"
               style="font-weight:400;font-size:370px;font-family:Garamond, serif">
              <tspan
                 id="tspan4408"
                 y="10584"
                 x="1829"
                 class="TextPosition">
                <tspan
                   id="tspan4410"
                   style="fill:#000032;stroke:none">jBoss</tspan>
              </tspan>
            </tspan>
          </text>
        </g>
      </g>
      <g
         id="g4412"
         class="com.sun.star.drawing.CustomShape">
        <g
           id="id5">
          <rect
             id="rect4415"
             height="1704"
             width="7204"
             y="10899"
             x="1899"
             class="BoundingBox"
             style="fill:none;stroke:none" />
          <g
             id="g4417">
            <defs
               id="defs4419" />
            <path
               id="path4426"
               d="m 2183,10900 -27,2 -26,4 -26,8 -25,10 -25,13 -23,15 -22,17 -21,19 -19,21 -17,22 -15,23 -13,25 -10,25 -8,26 -4,26 -2,27 0,1134 2,27 4,26 8,26 10,25 13,25 15,23 17,22 19,21 21,19 22,18 23,15 25,13 25,10 26,8 26,4 27,2 6634,0 27,-2 26,-4 26,-8 25,-10 25,-13 23,-15 22,-18 21,-19 19,-21 18,-22 15,-23 13,-25 10,-25 8,-26 4,-26 2,-27 0,-1134 -2,-27 -4,-26 -8,-26 -10,-25 -13,-25 -15,-23 -18,-22 -19,-21 -21,-19 -22,-17 -23,-15 -25,-13 -25,-10 -26,-8 -26,-4 -27,-2 -6634,0 z"
               style="fill:url(#gradient2)"
               inkscape:connector-curvature="0" />
          </g>
          <path
             id="path4428"
             d="m 2183,10900 c -142,0 -283,141 -283,283 l 0,1134 c 0,142 141,284 283,284 l 6634,0 c 142,0 284,-142 284,-284 l 0,-1134 c 0,-142 -142,-283 -284,-283 l -6634,0 z"
             inkscape:connector-curvature="0"
             style="fill:none;stroke:#000032" />
          <text
             id="text4430"
             class="TextShape">
            <tspan
               id="tspan4432"
               font-weight="400"
               font-size="370px"
               class="TextParagraph"
               style="font-weight:400;font-size:370px;font-family:Garamond, serif">
              <tspan
                 id="tspan4434"
                 y="11488"
                 x="2233"
                 class="TextPosition">
                <tspan
                   id="tspan4436"
                   style="fill:#000032;stroke:none">Anwendung.war</tspan>
              </tspan>
            </tspan>
          </text>
        </g>
      </g>
      <g
         id="g4438"
         class="com.sun.star.drawing.CustomShape">
        <g
           id="id6">
          <rect
             id="rect4441"
             height="904"
             width="3203"
             y="11299"
             x="5399"
             class="BoundingBox"
             style="fill:none;stroke:none" />
          <defs
             id="defs4443" />
          <g
             mask="url(#mask1)"
             id="g4461">
            <g
               id="g4463">
              <defs
                 id="defs4465" />
              <path
                 id="path4472"
                 d="m 5550,11300 -14,1 -14,2 -14,4 -13,6 -13,7 -12,8 -12,9 -11,10 -10,11 -9,12 -8,12 -7,13 -6,13 -4,14 -2,14 -1,14 0,600 1,14 2,14 4,14 6,13 7,13 8,13 9,12 10,11 11,10 12,9 12,8 13,7 13,5 14,5 14,2 14,1 2900,0 14,-1 14,-2 14,-5 13,-5 13,-7 12,-8 12,-9 11,-10 10,-11 9,-12 8,-13 7,-13 6,-13 4,-14 2,-14 1,-14 0,-600 -1,-14 -2,-14 -4,-14 -6,-13 -7,-13 -8,-12 -9,-12 -10,-11 -11,-10 -12,-9 -12,-8 -13,-7 -13,-6 -14,-4 -14,-2 -14,-1 -2900,0 z"
                 style="fill:url(#gradient4)"
                 inkscape:connector-curvature="0" />
            </g>
          </g>
          <path
             id="path4474"
             d="m 5550,11300 c -75,0 -150,75 -150,150 l 0,600 c 0,75 75,151 150,151 l 2900,0 c 75,0 150,-76 150,-151 l 0,-600 c 0,-75 -75,-150 -150,-150 l -2900,0 z"
             inkscape:connector-curvature="0"
             style="fill:none;stroke:#000032" />
          <text
             id="text4476"
             class="TextShape">
            <tspan
               id="tspan4478"
               font-weight="400"
               font-size="370px"
               class="TextParagraph"
               style="font-weight:400;font-size:370px;font-family:Garamond, serif">
              <tspan
                 id="tspan4480"
                 y="11892"
                 x="5756"
                 class="TextPosition">
                <tspan
                   id="tspan4482"
                   style="fill:#000032;stroke:none">Camunda-Engine</tspan>
              </tspan>
            </tspan>
          </text>
        </g>
      </g>
      <g
         id="g4484"
         class="com.sun.star.drawing.CustomShape">
        <g
           id="id7">
          <rect
             id="rect4487"
             height="1704"
             width="3204"
             y="13399"
             x="5399"
             class="BoundingBox"
             style="fill:none;stroke:none" />
          <defs
             id="defs4489" />
          <g
             id="g4494"
             clip-path="url(#clip_path_3)">
            <path
               id="path4496"
               d="m 5400,13400 3201,0 0,1701 -3201,0 0,-1701 z"
               inkscape:connector-curvature="0"
               style="fill:#ffffcc;stroke:none" />
          </g>
          <path
             id="path4498"
             d="m 7000,13400 c -873,0 -1600,96 -1600,212 l 0,1276 c 0,116 727,213 1600,213 873,0 1601,-97 1601,-213 l 0,-1276 c 0,-116 -728,-212 -1601,-212 z"
             inkscape:connector-curvature="0"
             style="fill:none;stroke:#000032" />
          <defs
             id="defs4500" />
          <g
             id="g4505"
             clip-path="url(#clip_path_4)">
            <path
               id="path4507"
               d="m 5400,13400 3201,0 0,425 -3201,0 0,-425 z"
               inkscape:connector-curvature="0"
               style="fill:#ffffe0;stroke:none" />
          </g>
          <path
             id="path4509"
             d="m 7000,13400 c -873,0 -1600,96 -1600,212 0,116 727,213 1600,213 873,0 1601,-97 1601,-213 0,-116 -728,-212 -1601,-212 z"
             inkscape:connector-curvature="0"
             style="fill:none;stroke:#000032" />
          <text
             id="text4511"
             class="TextShape">
            <tspan
               id="tspan4513"
               font-weight="400"
               font-size="370px"
               class="TextParagraph"
               style="font-weight:400;font-size:370px;font-family:Garamond, serif">
              <tspan
                 id="tspan4515"
                 y="14260"
                 x="6395"
                 class="TextPosition">
                <tspan
                   id="tspan4517"
                   style="fill:#000032;stroke:none">Prozess-</tspan>
              </tspan>
              <tspan
                 id="tspan4519"
                 y="14737"
                 x="6215"
                 class="TextPosition">
                <tspan
                   id="tspan4521"
                   style="fill:#000032;stroke:none">Datenbank</tspan>
              </tspan>
            </tspan>
          </text>
        </g>
      </g>
      <g
         id="g4523"
         class="com.sun.star.drawing.ConnectorShape">
        <g
           id="id8">
          <rect
             id="rect4526"
             height="1352"
             width="201"
             y="12199"
             x="6900"
             class="BoundingBox"
             style="fill:none;stroke:none" />
          <path
             id="path4528"
             d="m 7000,12200 0,1063"
             inkscape:connector-curvature="0"
             style="fill:none;stroke:#000032" />
          <path
             id="path4530"
             d="m 7000,13550 100,-300 -200,0 100,300 z"
             inkscape:connector-curvature="0"
             style="fill:#000032;stroke:none" />
        </g>
      </g>
    </g>
  </g>
</svg>
