<?xml version="1.0" encoding="UTF-8" standalone="no"?>
<svg
   xmlns:dc="http://purl.org/dc/elements/1.1/"
   xmlns:cc="http://creativecommons.org/ns#"
   xmlns:rdf="http://www.w3.org/1999/02/22-rdf-syntax-ns#"
   xmlns:svg="http://www.w3.org/2000/svg"
   xmlns="http://www.w3.org/2000/svg"
   xmlns:sodipodi="http://sodipodi.sourceforge.net/DTD/sodipodi-0.dtd"
   xmlns:inkscape="http://www.inkscape.org/namespaces/inkscape"
   version="1.2"
   width="20.219999mm"
   height="10.23mm"
   viewBox="0 0 2021.9999 1023"
   preserveAspectRatio="xMidYMid"
   xml:space="preserve"
   id="svg2"
   inkscape:version="0.91 r13725"
   sodipodi:docname="activity-subprocess.svg"
   style="fill-rule:evenodd;stroke-width:28.22200012;stroke-linejoin:round"><metadata
     id="metadata372"><rdf:RDF><cc:Work
         rdf:about=""><dc:format>image/svg+xml</dc:format><dc:type
           rdf:resource="http://purl.org/dc/dcmitype/StillImage" /><dc:title /></cc:Work></rdf:RDF></metadata><sodipodi:namedview
     pagecolor="#ffffff"
     bordercolor="#666666"
     borderopacity="1"
     objecttolerance="10"
     gridtolerance="10"
     guidetolerance="10"
     inkscape:pageopacity="0"
     inkscape:pageshadow="2"
     inkscape:window-width="1920"
     inkscape:window-height="1137"
     id="namedview370"
     showgrid="false"
     fit-margin-top="0"
     fit-margin-left="0"
     fit-margin-right="0"
     fit-margin-bottom="0"
     inkscape:zoom="5.0743656"
     inkscape:cx="43.757985"
     inkscape:cy="1.9586519"
     inkscape:window-x="1912"
     inkscape:window-y="32"
     inkscape:window-maximized="1"
     inkscape:current-layer="g125" /><defs
     class="ClipPathGroup"
     id="defs4"><clipPath
       id="presentation_clip_path"
       clipPathUnits="userSpaceOnUse"><rect
         x="0"
         y="0"
         width="21000"
         height="29700"
         id="rect7" /></clipPath></defs><defs
     id="defs12" /><defs
     class="TextShapeIndex"
     id="defs49" /><defs
     class="EmbeddedBulletChars"
     id="defs53" /><defs
     class="TextEmbeddedBitmaps"
     id="defs85" /><g
     id="g87"
     transform="translate(-9480,-14348)"><g
       id="id2"
       class="Master_Slide"><g
         id="bg-id2"
         class="Background" /><g
         id="bo-id2"
         class="BackgroundObjects" /></g></g><rect
     style="fill:none;stroke:none"
     id="rect103"
     height="1023"
     width="2022"
     y="0"
     x="0"
     class="BoundingBox" /><g
     id="g125"
     transform="translate(-9480,-14348)"><defs
       id="defs127"><linearGradient
         id="gradient2"
         x1="10490"
         y1="14358"
         x2="10490"
         y2="15360"
         gradientUnits="userSpaceOnUse"><stop
           offset="0"
           style="stop-color:rgb(200,220,255)"
           id="stop130" /><stop
           offset="1"
           style="stop-color:rgb(235,245,255)"
           id="stop132" /></linearGradient></defs><path
       style="fill:url(#gradient2)"
       d="m 9657,14358 -16,1 -15,3 -16,4 -15,6 -14,8 -14,9 -13,10 -12,11 -11,12 -10,13 -9,14 -8,14 -6,15 -4,16 -3,15 -1,16 0,668 1,16 3,15 4,15 6,15 8,15 9,13 10,13 11,13 12,11 13,10 14,9 14,8 15,6 16,4 15,3 16,1 1667,0 16,-1 15,-3 15,-4 15,-6 15,-8 13,-9 13,-10 13,-11 11,-13 10,-13 9,-13 8,-15 6,-15 4,-15 3,-15 1,-16 0,-668 -1,-16 -3,-15 -4,-16 -6,-15 -8,-14 -9,-14 -10,-13 -11,-12 -13,-11 -13,-10 -13,-9 -15,-8 -15,-6 -15,-4 -15,-3 -16,-1 -1667,0 z"
       id="path134"
       inkscape:connector-curvature="0" /></g><path
     style="fill:none;stroke:#000000;stroke-width:19;stroke-linejoin:round"
     inkscape:connector-curvature="0"
     id="path136"
     d="m 186,10 -9,0 c -6,0 -13,0 -19,1" /><path
     style="fill:none;stroke:#000000;stroke-width:19;stroke-linejoin:round"
     inkscape:connector-curvature="0"
     id="path138"
     d="m 127,20 c -6,2 -12,4 -18,7" /><path
     style="fill:none;stroke:#000000;stroke-width:19;stroke-linejoin:round"
     inkscape:connector-curvature="0"
     id="path140"
     d="M 82,44 C 77,48 72,52 68,57" /><path
     style="fill:none;stroke:#000000;stroke-width:19;stroke-linejoin:round"
     inkscape:connector-curvature="0"
     id="path142"
     d="M 46,80 C 42,85 38,91 35,96" /><path
     style="fill:none;stroke:#000000;stroke-width:19;stroke-linejoin:round"
     inkscape:connector-curvature="0"
     id="path144"
     d="m 20,125 c -2,6 -4,12 -6,18" /><path
     style="fill:none;stroke:#000000;stroke-width:19;stroke-linejoin:round"
     inkscape:connector-curvature="0"
     id="path146"
     d="m 10,175 c 0,1 0,1 0,2 l 0,17" /><path
     style="fill:none;stroke:#000000;stroke-width:19;stroke-linejoin:round"
     inkscape:connector-curvature="0"
     id="path148"
     d="m 10,226 0,19" /><path
     style="fill:none;stroke:#000000;stroke-width:19;stroke-linejoin:round"
     inkscape:connector-curvature="0"
     id="path150"
     d="m 10,278 0,19" /><path
     style="fill:none;stroke:#000000;stroke-width:19;stroke-linejoin:round"
     inkscape:connector-curvature="0"
     id="path152"
     d="m 10,329 0,19" /><path
     style="fill:none;stroke:#000000;stroke-width:19;stroke-linejoin:round"
     inkscape:connector-curvature="0"
     id="path154"
     d="m 10,380 0,19" /><path
     style="fill:none;stroke:#000000;stroke-width:19;stroke-linejoin:round"
     inkscape:connector-curvature="0"
     id="path156"
     d="m 10,431 0,19" /><path
     style="fill:none;stroke:#000000;stroke-width:19;stroke-linejoin:round"
     inkscape:connector-curvature="0"
     id="path158"
     d="m 10,483 0,19" /><path
     style="fill:none;stroke:#000000;stroke-width:19;stroke-linejoin:round"
     inkscape:connector-curvature="0"
     id="path160"
     d="m 10,534 0,19" /><path
     style="fill:none;stroke:#000000;stroke-width:19;stroke-linejoin:round"
     inkscape:connector-curvature="0"
     id="path162"
     d="m 10,585 0,19" /><path
     style="fill:none;stroke:#000000;stroke-width:19;stroke-linejoin:round"
     inkscape:connector-curvature="0"
     id="path164"
     d="m 10,637 0,19" /><path
     style="fill:none;stroke:#000000;stroke-width:19;stroke-linejoin:round"
     inkscape:connector-curvature="0"
     id="path166"
     d="m 10,688 0,19" /><path
     style="fill:none;stroke:#000000;stroke-width:19;stroke-linejoin:round"
     inkscape:connector-curvature="0"
     id="path168"
     d="m 10,739 0,19" /><path
     style="fill:none;stroke:#000000;stroke-width:19;stroke-linejoin:round"
     inkscape:connector-curvature="0"
     id="path170"
     d="m 10,791 0,19" /><path
     style="fill:none;stroke:#000000;stroke-width:19;stroke-linejoin:round"
     inkscape:connector-curvature="0"
     id="path172"
     d="m 10,842 0,3 c 0,5 0,11 1,16" /><path
     style="fill:none;stroke:#000000;stroke-width:19;stroke-linejoin:round"
     inkscape:connector-curvature="0"
     id="path174"
     d="m 19,892 c 2,6 4,12 7,18" /><path
     style="fill:none;stroke:#000000;stroke-width:19;stroke-linejoin:round"
     inkscape:connector-curvature="0"
     id="path176"
     d="m 43,937 c 4,5 8,10 12,15" /><path
     style="fill:none;stroke:#000000;stroke-width:19;stroke-linejoin:round"
     inkscape:connector-curvature="0"
     id="path178"
     d="m 78,974 c 5,4 10,8 16,11" /><path
     style="fill:none;stroke:#000000;stroke-width:19;stroke-linejoin:round"
     inkscape:connector-curvature="0"
     id="path180"
     d="m 122,1001 c 6,2 12,4 18,6" /><path
     style="fill:none;stroke:#000000;stroke-width:19;stroke-linejoin:round"
     inkscape:connector-curvature="0"
     id="path182"
     d="m 172,1012 c 2,0 3,0 5,0 l 14,0" /><path
     style="fill:none;stroke:#000000;stroke-width:19;stroke-linejoin:round"
     inkscape:connector-curvature="0"
     id="path184"
     d="m 223,1012 19,0" /><path
     style="fill:none;stroke:#000000;stroke-width:19;stroke-linejoin:round"
     inkscape:connector-curvature="0"
     id="path186"
     d="m 275,1012 19,0" /><path
     style="fill:none;stroke:#000000;stroke-width:19;stroke-linejoin:round"
     inkscape:connector-curvature="0"
     id="path188"
     d="m 326,1012 19,0" /><path
     style="fill:none;stroke:#000000;stroke-width:19;stroke-linejoin:round"
     inkscape:connector-curvature="0"
     id="path190"
     d="m 377,1012 19,0" /><path
     style="fill:none;stroke:#000000;stroke-width:19;stroke-linejoin:round"
     inkscape:connector-curvature="0"
     id="path192"
     d="m 428,1012 19,0" /><path
     style="fill:none;stroke:#000000;stroke-width:19;stroke-linejoin:round"
     inkscape:connector-curvature="0"
     id="path194"
     d="m 480,1012 19,0" /><path
     style="fill:none;stroke:#000000;stroke-width:19;stroke-linejoin:round"
     inkscape:connector-curvature="0"
     id="path196"
     d="m 531,1012 19,0" /><path
     style="fill:none;stroke:#000000;stroke-width:19;stroke-linejoin:round"
     inkscape:connector-curvature="0"
     id="path198"
     d="m 582,1012 19,0" /><path
     style="fill:none;stroke:#000000;stroke-width:19;stroke-linejoin:round"
     inkscape:connector-curvature="0"
     id="path200"
     d="m 634,1012 19,0" /><path
     style="fill:none;stroke:#000000;stroke-width:19;stroke-linejoin:round"
     inkscape:connector-curvature="0"
     id="path202"
     d="m 685,1012 19,0" /><path
     style="fill:none;stroke:#000000;stroke-width:19;stroke-linejoin:round"
     inkscape:connector-curvature="0"
     id="path204"
     d="m 736,1012 19,0" /><path
     style="fill:none;stroke:#000000;stroke-width:19;stroke-linejoin:round"
     inkscape:connector-curvature="0"
     id="path206"
     d="m 788,1012 19,0" /><path
     style="fill:none;stroke:#000000;stroke-width:19;stroke-linejoin:round"
     inkscape:connector-curvature="0"
     id="path208"
     d="m 839,1012 19,0" /><path
     style="fill:none;stroke:#000000;stroke-width:19;stroke-linejoin:round"
     inkscape:connector-curvature="0"
     id="path210"
     d="m 890,1012 19,0" /><path
     style="fill:none;stroke:#000000;stroke-width:19;stroke-linejoin:round"
     inkscape:connector-curvature="0"
     id="path212"
     d="m 941,1012 19,0" /><path
     style="fill:none;stroke:#000000;stroke-width:19;stroke-linejoin:round"
     inkscape:connector-curvature="0"
     id="path214"
     d="m 993,1012 19,0" /><path
     style="fill:none;stroke:#000000;stroke-width:19;stroke-linejoin:round"
     inkscape:connector-curvature="0"
     id="path216"
     d="m 1044,1012 19,0" /><path
     style="fill:none;stroke:#000000;stroke-width:19;stroke-linejoin:round"
     inkscape:connector-curvature="0"
     id="path218"
     d="m 1095,1012 19,0" /><path
     style="fill:none;stroke:#000000;stroke-width:19;stroke-linejoin:round"
     inkscape:connector-curvature="0"
     id="path220"
     d="m 1147,1012 19,0" /><path
     style="fill:none;stroke:#000000;stroke-width:19;stroke-linejoin:round"
     inkscape:connector-curvature="0"
     id="path222"
     d="m 1198,1012 19,0" /><path
     style="fill:none;stroke:#000000;stroke-width:19;stroke-linejoin:round"
     inkscape:connector-curvature="0"
     id="path224"
     d="m 1249,1012 19,0" /><path
     style="fill:none;stroke:#000000;stroke-width:19;stroke-linejoin:round"
     inkscape:connector-curvature="0"
     id="path226"
     d="m 1301,1012 19,0" /><path
     style="fill:none;stroke:#000000;stroke-width:19;stroke-linejoin:round"
     inkscape:connector-curvature="0"
     id="path228"
     d="m 1352,1012 19,0" /><path
     style="fill:none;stroke:#000000;stroke-width:19;stroke-linejoin:round"
     inkscape:connector-curvature="0"
     id="path230"
     d="m 1403,1012 19,0" /><path
     style="fill:none;stroke:#000000;stroke-width:19;stroke-linejoin:round"
     inkscape:connector-curvature="0"
     id="path232"
     d="m 1454,1012 19,0" /><path
     style="fill:none;stroke:#000000;stroke-width:19;stroke-linejoin:round"
     inkscape:connector-curvature="0"
     id="path234"
     d="m 1506,1012 19,0" /><path
     style="fill:none;stroke:#000000;stroke-width:19;stroke-linejoin:round"
     inkscape:connector-curvature="0"
     id="path236"
     d="m 1557,1012 19,0" /><path
     style="fill:none;stroke:#000000;stroke-width:19;stroke-linejoin:round"
     inkscape:connector-curvature="0"
     id="path238"
     d="m 1608,1012 19,0" /><path
     style="fill:none;stroke:#000000;stroke-width:19;stroke-linejoin:round"
     inkscape:connector-curvature="0"
     id="path240"
     d="m 1660,1012 19,0" /><path
     style="fill:none;stroke:#000000;stroke-width:19;stroke-linejoin:round"
     inkscape:connector-curvature="0"
     id="path242"
     d="m 1711,1012 19,0" /><path
     style="fill:none;stroke:#000000;stroke-width:19;stroke-linejoin:round"
     inkscape:connector-curvature="0"
     id="path244"
     d="m 1762,1012 19,0" /><path
     style="fill:none;stroke:#000000;stroke-width:19;stroke-linejoin:round"
     inkscape:connector-curvature="0"
     id="path246"
     d="m 1814,1012 19,0" /><path
     style="fill:none;stroke:#000000;stroke-width:19;stroke-linejoin:round"
     inkscape:connector-curvature="0"
     id="path248"
     d="m 1865,1010 c 6,-1 12,-2 18,-4" /><path
     style="fill:none;stroke:#000000;stroke-width:19;stroke-linejoin:round"
     inkscape:connector-curvature="0"
     id="path250"
     d="m 1913,994 c 6,-3 11,-7 16,-10" /><path
     style="fill:none;stroke:#000000;stroke-width:19;stroke-linejoin:round"
     inkscape:connector-curvature="0"
     id="path252"
     d="m 1955,964 c 4,-5 9,-9 13,-14" /><path
     style="fill:none;stroke:#000000;stroke-width:19;stroke-linejoin:round"
     inkscape:connector-curvature="0"
     id="path254"
     d="m 1987,924 c 3,-6 6,-11 9,-17" /><path
     style="fill:none;stroke:#000000;stroke-width:19;stroke-linejoin:round"
     inkscape:connector-curvature="0"
     id="path256"
     d="m 2007,877 c 2,-6 3,-13 3,-19" /><path
     style="fill:none;stroke:#000000;stroke-width:19;stroke-linejoin:round"
     inkscape:connector-curvature="0"
     id="path258"
     d="m 2011,826 0,-19" /><path
     style="fill:none;stroke:#000000;stroke-width:19;stroke-linejoin:round"
     inkscape:connector-curvature="0"
     id="path260"
     d="m 2011,775 0,-19" /><path
     style="fill:none;stroke:#000000;stroke-width:19;stroke-linejoin:round"
     inkscape:connector-curvature="0"
     id="path262"
     d="m 2011,723 0,-19" /><path
     style="fill:none;stroke:#000000;stroke-width:19;stroke-linejoin:round"
     inkscape:connector-curvature="0"
     id="path264"
     d="m 2011,672 0,-19" /><path
     style="fill:none;stroke:#000000;stroke-width:19;stroke-linejoin:round"
     inkscape:connector-curvature="0"
     id="path266"
     d="m 2011,621 0,-19" /><path
     style="fill:none;stroke:#000000;stroke-width:19;stroke-linejoin:round"
     inkscape:connector-curvature="0"
     id="path268"
     d="m 2011,569 0,-19" /><path
     style="fill:none;stroke:#000000;stroke-width:19;stroke-linejoin:round"
     inkscape:connector-curvature="0"
     id="path270"
     d="m 2011,518 0,-19" /><path
     style="fill:none;stroke:#000000;stroke-width:19;stroke-linejoin:round"
     inkscape:connector-curvature="0"
     id="path272"
     d="m 2011,467 0,-19" /><path
     style="fill:none;stroke:#000000;stroke-width:19;stroke-linejoin:round"
     inkscape:connector-curvature="0"
     id="path274"
     d="m 2011,415 0,-19" /><path
     style="fill:none;stroke:#000000;stroke-width:19;stroke-linejoin:round"
     inkscape:connector-curvature="0"
     id="path276"
     d="m 2011,364 0,-19" /><path
     style="fill:none;stroke:#000000;stroke-width:19;stroke-linejoin:round"
     inkscape:connector-curvature="0"
     id="path278"
     d="m 2011,313 0,-19" /><path
     style="fill:none;stroke:#000000;stroke-width:19;stroke-linejoin:round"
     inkscape:connector-curvature="0"
     id="path280"
     d="m 2011,262 0,-19" /><path
     style="fill:none;stroke:#000000;stroke-width:19;stroke-linejoin:round"
     inkscape:connector-curvature="0"
     id="path282"
     d="m 2011,210 0,-19" /><path
     style="fill:none;stroke:#000000;stroke-width:19;stroke-linejoin:round"
     inkscape:connector-curvature="0"
     id="path284"
     d="m 2010,159 c -1,-6 -2,-12 -4,-19" /><path
     style="fill:none;stroke:#000000;stroke-width:19;stroke-linejoin:round"
     inkscape:connector-curvature="0"
     id="path286"
     d="m 1994,110 c -3,-5 -6,-11 -9,-16" /><path
     style="fill:none;stroke:#000000;stroke-width:19;stroke-linejoin:round"
     inkscape:connector-curvature="0"
     id="path288"
     d="m 1965,68 c -5,-4 -9,-9 -14,-13" /><path
     style="fill:none;stroke:#000000;stroke-width:19;stroke-linejoin:round"
     inkscape:connector-curvature="0"
     id="path290"
     d="m 1926,35 c -6,-3 -11,-6 -17,-9" /><path
     style="fill:none;stroke:#000000;stroke-width:19;stroke-linejoin:round"
     inkscape:connector-curvature="0"
     id="path292"
     d="m 1879,15 c -6,-2 -13,-3 -19,-4" /><path
     style="fill:none;stroke:#000000;stroke-width:19;stroke-linejoin:round"
     inkscape:connector-curvature="0"
     id="path294"
     d="m 1828,10 -19,0" /><path
     style="fill:none;stroke:#000000;stroke-width:19;stroke-linejoin:round"
     inkscape:connector-curvature="0"
     id="path296"
     d="m 1777,10 -19,0" /><path
     style="fill:none;stroke:#000000;stroke-width:19;stroke-linejoin:round"
     inkscape:connector-curvature="0"
     id="path298"
     d="m 1725,10 -19,0" /><path
     style="fill:none;stroke:#000000;stroke-width:19;stroke-linejoin:round"
     inkscape:connector-curvature="0"
     id="path300"
     d="m 1674,10 -19,0" /><path
     style="fill:none;stroke:#000000;stroke-width:19;stroke-linejoin:round"
     inkscape:connector-curvature="0"
     id="path302"
     d="m 1623,10 -19,0" /><path
     style="fill:none;stroke:#000000;stroke-width:19;stroke-linejoin:round"
     inkscape:connector-curvature="0"
     id="path304"
     d="m 1571,10 -19,0" /><path
     style="fill:none;stroke:#000000;stroke-width:19;stroke-linejoin:round"
     inkscape:connector-curvature="0"
     id="path306"
     d="m 1520,10 -19,0" /><path
     style="fill:none;stroke:#000000;stroke-width:19;stroke-linejoin:round"
     inkscape:connector-curvature="0"
     id="path308"
     d="m 1469,10 -19,0" /><path
     style="fill:none;stroke:#000000;stroke-width:19;stroke-linejoin:round"
     inkscape:connector-curvature="0"
     id="path310"
     d="m 1417,10 -19,0" /><path
     style="fill:none;stroke:#000000;stroke-width:19;stroke-linejoin:round"
     inkscape:connector-curvature="0"
     id="path312"
     d="m 1366,10 -19,0" /><path
     style="fill:none;stroke:#000000;stroke-width:19;stroke-linejoin:round"
     inkscape:connector-curvature="0"
     id="path314"
     d="m 1315,10 -19,0" /><path
     style="fill:none;stroke:#000000;stroke-width:19;stroke-linejoin:round"
     inkscape:connector-curvature="0"
     id="path316"
     d="m 1264,10 -19,0" /><path
     style="fill:none;stroke:#000000;stroke-width:19;stroke-linejoin:round"
     inkscape:connector-curvature="0"
     id="path318"
     d="m 1212,10 -19,0" /><path
     style="fill:none;stroke:#000000;stroke-width:19;stroke-linejoin:round"
     inkscape:connector-curvature="0"
     id="path320"
     d="m 1161,10 -19,0" /><path
     style="fill:none;stroke:#000000;stroke-width:19;stroke-linejoin:round"
     inkscape:connector-curvature="0"
     id="path322"
     d="m 1110,10 -19,0" /><path
     style="fill:none;stroke:#000000;stroke-width:19;stroke-linejoin:round"
     inkscape:connector-curvature="0"
     id="path324"
     d="m 1058,10 -19,0" /><path
     style="fill:none;stroke:#000000;stroke-width:19;stroke-linejoin:round"
     inkscape:connector-curvature="0"
     id="path326"
     d="m 1007,10 -19,0" /><path
     style="fill:none;stroke:#000000;stroke-width:19;stroke-linejoin:round"
     inkscape:connector-curvature="0"
     id="path328"
     d="m 956,10 -19,0" /><path
     style="fill:none;stroke:#000000;stroke-width:19;stroke-linejoin:round"
     inkscape:connector-curvature="0"
     id="path330"
     d="m 904,10 -19,0" /><path
     style="fill:none;stroke:#000000;stroke-width:19;stroke-linejoin:round"
     inkscape:connector-curvature="0"
     id="path332"
     d="m 853,10 -19,0" /><path
     style="fill:none;stroke:#000000;stroke-width:19;stroke-linejoin:round"
     inkscape:connector-curvature="0"
     id="path334"
     d="m 802,10 -19,0" /><path
     style="fill:none;stroke:#000000;stroke-width:19;stroke-linejoin:round"
     inkscape:connector-curvature="0"
     id="path336"
     d="m 751,10 -19,0" /><path
     style="fill:none;stroke:#000000;stroke-width:19;stroke-linejoin:round"
     inkscape:connector-curvature="0"
     id="path338"
     d="m 699,10 -19,0" /><path
     style="fill:none;stroke:#000000;stroke-width:19;stroke-linejoin:round"
     inkscape:connector-curvature="0"
     id="path340"
     d="m 648,10 -19,0" /><path
     style="fill:none;stroke:#000000;stroke-width:19;stroke-linejoin:round"
     inkscape:connector-curvature="0"
     id="path342"
     d="m 597,10 -19,0" /><path
     style="fill:none;stroke:#000000;stroke-width:19;stroke-linejoin:round"
     inkscape:connector-curvature="0"
     id="path344"
     d="m 545,10 -19,0" /><path
     style="fill:none;stroke:#000000;stroke-width:19;stroke-linejoin:round"
     inkscape:connector-curvature="0"
     id="path346"
     d="m 494,10 -19,0" /><path
     style="fill:none;stroke:#000000;stroke-width:19;stroke-linejoin:round"
     inkscape:connector-curvature="0"
     id="path348"
     d="m 443,10 -19,0" /><path
     style="fill:none;stroke:#000000;stroke-width:19;stroke-linejoin:round"
     inkscape:connector-curvature="0"
     id="path350"
     d="m 391,10 -19,0" /><path
     style="fill:none;stroke:#000000;stroke-width:19;stroke-linejoin:round"
     inkscape:connector-curvature="0"
     id="path352"
     d="m 340,10 -19,0" /><path
     style="fill:none;stroke:#000000;stroke-width:19;stroke-linejoin:round"
     inkscape:connector-curvature="0"
     id="path354"
     d="m 289,10 -19,0" /><path
     style="fill:none;stroke:#000000;stroke-width:19;stroke-linejoin:round"
     inkscape:connector-curvature="0"
     id="path356"
     d="m 238,10 -19,0" /><text
     id="text358"
     class="TextShape"
     x="-9480"
     y="-14348"><tspan
       style="font-style:italic;font-weight:400;font-size:282px;font-family:'Comic Sans MS'"
       id="tspan360"
       font-weight="400"
       font-style="italic"
       font-size="282px"
       class="TextParagraph"><tspan
         id="tspan362"
         y="426"
         x="274"
         class="TextPosition"><tspan
           style="fill:#000032;stroke:none"
           id="tspan364">Event Sub-</tspan></tspan><tspan
         id="tspan366"
         y="883"
         x="505"
         class="TextPosition"><tspan
           style="fill:#000032;stroke:none"
           id="tspan368">Process</tspan></tspan></tspan></text>
</svg>