<?xml version="1.0" encoding="UTF-8" standalone="no"?>
<svg
   xmlns:dc="http://purl.org/dc/elements/1.1/"
   xmlns:cc="http://creativecommons.org/ns#"
   xmlns:rdf="http://www.w3.org/1999/02/22-rdf-syntax-ns#"
   xmlns:svg="http://www.w3.org/2000/svg"
   xmlns="http://www.w3.org/2000/svg"
   xmlns:sodipodi="http://sodipodi.sourceforge.net/DTD/sodipodi-0.dtd"
   xmlns:inkscape="http://www.inkscape.org/namespaces/inkscape"
   version="1.2"
   width="20.219999mm"
   height="10.23mm"
   viewBox="0 0 2021.9999 1023"
   preserveAspectRatio="xMidYMid"
   xml:space="preserve"
   id="svg2"
   inkscape:version="0.91 r13725"
   sodipodi:docname="activity-ad-hoc.svg"
   style="fill-rule:evenodd;stroke-width:28.22200012;stroke-linejoin:round"><metadata
     id="metadata126"><rdf:RDF><cc:Work
         rdf:about=""><dc:format>image/svg+xml</dc:format><dc:type
           rdf:resource="http://purl.org/dc/dcmitype/StillImage" /><dc:title></dc:title></cc:Work></rdf:RDF></metadata><sodipodi:namedview
     pagecolor="#ffffff"
     bordercolor="#666666"
     borderopacity="1"
     objecttolerance="10"
     gridtolerance="10"
     guidetolerance="10"
     inkscape:pageopacity="0"
     inkscape:pageshadow="2"
     inkscape:window-width="828"
     inkscape:window-height="480"
     id="namedview124"
     showgrid="false"
     fit-margin-top="0"
     fit-margin-left="0"
     fit-margin-right="0"
     fit-margin-bottom="0"
     inkscape:zoom="1.2685914"
     inkscape:cx="42.192638"
     inkscape:cy="-73.669987"
     inkscape:window-x="2663"
     inkscape:window-y="381"
     inkscape:window-maximized="0"
     inkscape:current-layer="svg2" /><defs
     class="ClipPathGroup"
     id="defs4"><clipPath
       id="presentation_clip_path"
       clipPathUnits="userSpaceOnUse"><rect
         x="0"
         y="0"
         width="21000"
         height="29700"
         id="rect7" /></clipPath></defs><defs
     id="defs12" /><defs
     class="TextShapeIndex"
     id="defs31" /><defs
     class="EmbeddedBulletChars"
     id="defs35" /><defs
     class="TextEmbeddedBitmaps"
     id="defs67" /><g
     id="g69"
     transform="translate(-7988,-1388)"><g
       id="id2"
       class="Master_Slide"><g
         id="bg-id2"
         class="Background" /><g
         id="bo-id2"
         class="BackgroundObjects" /></g></g><g
     class="SlideGroup"
     id="g74"
     transform="translate(-7988,-1388)"><g
       id="g76"><g
         id="container-id1"><g
           id="id1"
           class="Slide"
           clip-path="url(#presentation_clip_path)"><g
             class="Page"
             id="g80"><g
               class="Group"
               id="g82"><g
                 class="com.sun.star.drawing.CustomShape"
                 id="g84"><g
                   id="id3"><rect
                     class="BoundingBox"
                     x="7988"
                     y="1388"
                     width="2022"
                     height="1023"
                     id="rect87"
                     style="fill:none;stroke:none" /><g
                     id="g89"><defs
                       id="defs91"><linearGradient
                         id="gradient1"
                         x1="8998"
                         y1="1398"
                         x2="8998"
                         y2="2400"
                         gradientUnits="userSpaceOnUse"><stop
                           offset="0"
                           style="stop-color:rgb(200,220,255)"
                           id="stop94" /><stop
                           offset="1"
                           style="stop-color:rgb(235,245,255)"
                           id="stop96" /></linearGradient></defs><path
                       style="fill:url(#gradient1)"
                       d="m 8165,1398 -16,1 -15,3 -16,4 -15,6 -14,8 -14,9 -13,10 -12,11 -11,12 -10,13 -9,14 -8,14 -6,15 -4,16 -3,15 -1,16 0,668 1,16 3,15 4,15 6,15 8,15 9,13 10,13 11,13 12,11 13,10 14,9 14,8 15,6 16,4 15,3 16,1 1667,0 16,-1 15,-3 15,-4 15,-6 15,-8 13,-9 13,-10 13,-11 11,-13 10,-13 9,-13 8,-15 6,-15 4,-15 3,-15 1,-16 0,-668 -1,-16 -3,-15 -4,-16 -6,-15 -8,-14 -9,-14 -10,-13 -11,-12 -13,-11 -13,-10 -13,-9 -15,-8 -15,-6 -15,-4 -15,-3 -16,-1 -1667,0 z"
                       id="path98"
                       inkscape:connector-curvature="0" /></g><path
                     d="m 8165,1398 c -84,0 -167,83 -167,167 l 0,668 c 0,83 83,167 167,167 l 1667,0 c 83,0 167,-84 167,-167 l 0,-668 c 0,-84 -84,-167 -167,-167 l -1667,0 z"
                     id="path100"
                     inkscape:connector-curvature="0"
                     style="fill:none;stroke:#000000;stroke-width:19;stroke-linejoin:round" /><text
                     class="TextShape"
                     id="text102"><tspan
                       class="TextParagraph"
                       font-size="282px"
                       font-style="italic"
                       font-weight="400"
                       id="tspan104"
                       style="font-style:italic;font-weight:400;font-size:282px;font-family:'Comic Sans MS'"><tspan
                         class="TextPosition"
                         x="8499"
                         y="2042"
                         id="tspan106"><tspan
                           id="tspan108"
                           style="fill:#000032;stroke:none">Ad-Hoc</tspan></tspan></tspan></text>
</g></g><g
                 class="Graphic"
                 id="g110"><g
                   id="id4"><rect
                     class="BoundingBox"
                     x="8699"
                     y="2099"
                     width="302"
                     height="302"
                     id="rect113"
                     style="fill:none;stroke:none" /><path
                     d="m 8705,2400 0,0 c -1,-1 -2,-2 -4,-3 l -2,-3 0,-143 0,0 c 0,-135 0,-145 1,-147 l 0,0 c 1,-1 2,-3 4,-4 l 0,0 c 2,-1 4,-1 146,-1 l 0,0 c 143,0 144,0 146,1 l 0,0 c 5,4 5,-9 5,151 l -1,143 -1,2 0,0 c -4,5 6,4 -149,4 l 0,0 c -79,0 -144,0 -145,0 z m 274,-150 0,-129 -129,0 -129,0 0,129 0,129 129,0 129,0 0,-129 z m -135,79 0,0 c -1,-1 -3,-2 -4,-4 l 0,0 c -1,-2 -1,-3 -1,-33 l 0,-31 -31,0 0,0 c -30,0 -32,0 -34,-2 l 0,0 c -4,-2 -5,-5 -5,-10 l 0,0 c 0,-4 1,-5 3,-7 l 3,-3 32,0 32,0 0,-32 0,-32 3,-3 0,0 c 3,-3 3,-3 8,-3 l 0,0 c 4,0 5,1 7,2 l 0,0 c 4,4 4,3 4,37 l 0,31 32,0 32,0 2,2 0,0 c 6,5 5,14 -1,18 l 0,0 c -3,2 -4,2 -34,2 l -31,0 0,31 0,0 c 0,30 0,31 -2,33 l 0,0 c -2,4 -5,5 -9,5 l 0,0 c -2,0 -4,0 -6,-1 z"
                     id="path115"
                     inkscape:connector-curvature="0"
                     style="fill:#000000;stroke:none" /></g></g><g
                 class="Graphic"
                 id="g117"><g
                   id="id5"><rect
                     class="BoundingBox"
                     x="9086"
                     y="2198"
                     width="314"
                     height="102"
                     id="rect120"
                     style="fill:none;stroke:none" /><path
                     d="m 9086,2297 0,0 c 0,-4 5,-22 8,-32 l 0,0 c 12,-33 33,-57 57,-64 l 0,0 c 6,-2 9,-2 23,-2 l 0,0 c 22,0 36,3 88,18 l 0,0 c 45,14 58,14 71,-1 l 0,0 c 2,-2 5,-7 7,-11 l 3,-7 28,0 0,0 c 15,0 28,0 28,1 l 0,0 c 0,1 -6,20 -9,30 l 0,0 c -20,56 -48,75 -100,69 l 0,0 c -17,-3 -29,-5 -65,-16 l 0,0 c -33,-10 -45,-12 -51,-12 l 0,0 c -10,0 -22,9 -29,23 l -4,6 -27,0 -28,0 0,-2 0,0 z"
                     id="path122"
                     inkscape:connector-curvature="0"
                     style="fill:#000000;stroke:none" /></g></g></g></g></g></g></g></g></svg>