<?xml version="1.0" encoding="UTF-8" standalone="no"?>
<svg
   xmlns:dc="http://purl.org/dc/elements/1.1/"
   xmlns:cc="http://creativecommons.org/ns#"
   xmlns:rdf="http://www.w3.org/1999/02/22-rdf-syntax-ns#"
   xmlns:svg="http://www.w3.org/2000/svg"
   xmlns="http://www.w3.org/2000/svg"
   xmlns:sodipodi="http://sodipodi.sourceforge.net/DTD/sodipodi-0.dtd"
   xmlns:inkscape="http://www.inkscape.org/namespaces/inkscape"
   version="1.2"
   width="20.282219mm"
   height="11.90111mm"
   viewBox="0 0 2028.2219 1190.111"
   preserveAspectRatio="xMidYMid"
   xml:space="preserve"
   id="svg2"
   inkscape:version="0.91 r13725"
   sodipodi:docname="activity-transaction.svg"
   style="fill-rule:evenodd;stroke-width:28.22200012;stroke-linejoin:round"><metadata
     id="metadata232"><rdf:RDF><cc:Work
         rdf:about=""><dc:format>image/svg+xml</dc:format><dc:type
           rdf:resource="http://purl.org/dc/dcmitype/StillImage" /><dc:title></dc:title></cc:Work></rdf:RDF></metadata><sodipodi:namedview
     pagecolor="#ffffff"
     bordercolor="#666666"
     borderopacity="1"
     objecttolerance="10"
     gridtolerance="10"
     guidetolerance="10"
     inkscape:pageopacity="0"
     inkscape:pageshadow="2"
     inkscape:window-width="828"
     inkscape:window-height="480"
     id="namedview230"
     showgrid="false"
     fit-margin-top="0"
     fit-margin-left="0"
     fit-margin-right="0"
     fit-margin-bottom="0"
     inkscape:zoom="1.2685914"
     inkscape:cx="-21.416473"
     inkscape:cy="-73.39188"
     inkscape:window-x="2575"
     inkscape:window-y="403"
     inkscape:window-maximized="0"
     inkscape:current-layer="svg2" /><defs
     class="ClipPathGroup"
     id="defs4"><clipPath
       id="presentation_clip_path"
       clipPathUnits="userSpaceOnUse"><rect
         x="0"
         y="0"
         width="21000"
         height="29700"
         id="rect7" /></clipPath></defs><defs
     id="defs12" /><defs
     class="TextShapeIndex"
     id="defs37" /><defs
     class="EmbeddedBulletChars"
     id="defs41" /><defs
     class="TextEmbeddedBitmaps"
     id="defs73" /><g
     id="g75"
     transform="translate(-8285.889,-1384.889)"><g
       id="id2"
       class="Master_Slide"><g
         id="bg-id2"
         class="Background" /><g
         id="bo-id2"
         class="BackgroundObjects" /></g></g><g
     class="SlideGroup"
     id="g80"
     transform="translate(-8285.889,-1384.889)"><g
       id="g82"><g
         id="container-id1"><g
           id="id1"
           class="Slide"
           clip-path="url(#presentation_clip_path)"><g
             class="Page"
             id="g86"><g
               class="Group"
               id="g88"><g
                 class="Group"
                 id="g90"><g
                   class="com.sun.star.drawing.CustomShape"
                   id="g92"><g
                     id="id3"><rect
                       class="BoundingBox"
                       x="8299"
                       y="1398"
                       width="2003"
                       height="1003"
                       id="rect95"
                       style="fill:none;stroke:none" /><g
                       id="g97"><defs
                         id="defs99"><linearGradient
                           id="gradient1"
                           x1="9300"
                           y1="1399"
                           x2="9300"
                           y2="2399"
                           gradientUnits="userSpaceOnUse"><stop
                             offset="0"
                             style="stop-color:rgb(200,220,255)"
                             id="stop102" /><stop
                             offset="1"
                             style="stop-color:rgb(235,245,255)"
                             id="stop104" /></linearGradient></defs><path
                         style="fill:url(#gradient1)"
                         d="m 8466,1399 -16,1 -15,3 -15,4 -15,6 -14,8 -14,9 -13,10 -12,11 -11,12 -10,13 -9,14 -8,14 -6,15 -4,15 -3,15 -1,16 0,667 1,16 3,15 4,15 6,15 8,15 9,13 10,13 11,13 12,11 13,10 14,9 14,8 15,6 15,4 15,3 16,1 1667,0 16,-1 15,-3 15,-4 15,-6 15,-8 13,-9 13,-10 13,-11 11,-13 10,-13 9,-13 8,-15 6,-15 4,-15 3,-15 1,-16 0,-667 -1,-16 -3,-15 -4,-15 -6,-15 -8,-14 -9,-14 -10,-13 -11,-12 -13,-11 -13,-10 -13,-9 -15,-8 -15,-6 -15,-4 -15,-3 -16,-1 -1667,0 z"
                         id="path106"
                         inkscape:connector-curvature="0" /></g><path
                       d="m 8466,1399 c -83,0 -166,83 -166,166 l 0,667 c 0,83 83,167 166,167 l 1667,0 c 83,0 167,-84 167,-167 l 0,-667 c 0,-83 -84,-166 -167,-166 l -1667,0 z"
                       id="path108"
                       inkscape:connector-curvature="0"
                       style="fill:none;stroke:#000000" /></g></g><g
                   class="com.sun.star.drawing.CustomShape"
                   id="g110"><g
                     id="id4"><rect
                       class="BoundingBox"
                       x="8349"
                       y="1449"
                       width="1904"
                       height="904"
                       id="rect113"
                       style="fill:none;stroke:none" /><g
                       id="g115"><defs
                         id="defs117"><linearGradient
                           id="gradient2"
                           x1="9300"
                           y1="1450"
                           x2="9300"
                           y2="2351"
                           gradientUnits="userSpaceOnUse"><stop
                             offset="0"
                             style="stop-color:rgb(200,220,255)"
                             id="stop120" /><stop
                             offset="1"
                             style="stop-color:rgb(235,245,255)"
                             id="stop122" /></linearGradient></defs><path
                         style="fill:url(#gradient2)"
                         d="m 8500,1450 -14,1 -14,2 -14,4 -13,6 -13,7 -12,8 -12,9 -11,10 -10,11 -9,12 -8,12 -7,13 -6,13 -4,14 -2,14 -1,14 0,600 1,14 2,14 4,14 6,13 7,13 8,13 9,12 10,11 11,10 12,9 12,8 13,7 13,5 14,5 14,2 14,1 1600,0 14,-1 14,-2 14,-5 13,-5 13,-7 13,-8 12,-9 11,-10 10,-11 9,-12 8,-13 7,-13 5,-13 5,-14 2,-14 1,-14 0,-600 -1,-14 -2,-14 -5,-14 -5,-13 -7,-13 -8,-12 -9,-12 -10,-11 -11,-10 -12,-9 -13,-8 -13,-7 -13,-6 -14,-4 -14,-2 -14,-1 -1600,0 z"
                         id="path124"
                         inkscape:connector-curvature="0" /></g><path
                       d="m 8500,1450 c -75,0 -150,75 -150,150 l 0,600 c 0,75 75,151 150,151 l 1600,0 c 75,0 151,-76 151,-151 l 0,-600 c 0,-75 -76,-150 -151,-150 l -1600,0 z"
                       id="path126"
                       inkscape:connector-curvature="0"
                       style="fill:none;stroke:#000000" /><text
                       class="TextShape"
                       id="text128"><tspan
                         class="TextParagraph"
                         font-size="282px"
                         font-style="italic"
                         font-weight="400"
                         id="tspan130"
                         style="font-style:italic;font-weight:400;font-size:282px;font-family:'Comic Sans MS'"><tspan
                           class="TextPosition"
                           x="8519"
                           y="2044"
                           id="tspan132"><tspan
                             id="tspan134"
                             style="fill:#000032;stroke:none">Transaction</tspan></tspan></tspan></text>
</g></g></g><g
                 class="Group"
                 id="g136"><g
                   class="Group"
                   id="g138"><g
                     class="com.sun.star.drawing.CustomShape"
                     id="g140"><g
                       id="id5"><rect
                         class="BoundingBox"
                         x="8693"
                         y="2162"
                         width="413"
                         height="413"
                         id="rect143"
                         style="fill:none;stroke:none" /><g
                         id="g145"><defs
                           id="defs147"><linearGradient
                             id="gradient3"
                             x1="8899"
                             y1="2168"
                             x2="8899"
                             y2="2569"
                             gradientUnits="userSpaceOnUse"><stop
                               offset="0"
                               style="stop-color:rgb(200,220,255)"
                               id="stop150" /><stop
                               offset="1"
                               style="stop-color:rgb(235,245,255)"
                               id="stop152" /></linearGradient></defs><path
                           style="fill:url(#gradient3)"
                           d="m 8899,2168 14,0 13,1 13,2 12,3 12,4 12,4 12,6 12,6 12,8 11,7 10,8 9,9 9,9 8,10 7,11 8,12 6,12 6,12 4,12 4,12 3,12 2,13 1,13 1,14 -1,14 -1,13 -2,13 -3,12 -4,12 -4,12 -6,12 -6,12 -8,12 -7,11 -8,10 -9,9 -9,9 -10,8 -11,7 -12,8 -12,6 -12,6 -12,4 -12,4 -12,3 -13,2 -13,1 -14,1 -14,-1 -13,-1 -13,-2 -12,-3 -12,-4 -12,-4 -12,-6 -12,-6 -12,-8 -11,-7 -10,-8 -9,-9 -9,-9 -8,-10 -7,-11 -8,-12 -6,-12 -6,-12 -4,-12 -4,-12 -3,-12 -2,-13 -1,-13 0,-14 0,-14 1,-13 2,-13 3,-12 4,-12 4,-12 6,-12 6,-12 8,-12 7,-11 8,-10 9,-9 9,-9 10,-8 11,-7 12,-8 12,-6 12,-6 12,-4 12,-4 12,-3 13,-2 13,-1 14,0 z"
                           id="path154"
                           inkscape:connector-curvature="0" /></g><path
                         d="m 8899,2168 c 37,0 68,8 100,26 32,19 55,42 74,74 18,32 27,63 27,100 0,37 -9,68 -27,100 -19,32 -42,55 -74,74 -32,18 -63,27 -100,27 -37,0 -68,-9 -100,-27 -32,-19 -55,-42 -74,-74 -18,-32 -26,-63 -26,-100 0,-37 8,-68 26,-100 19,-32 42,-55 74,-74 32,-18 63,-26 100,-26 z"
                         id="path156"
                         inkscape:connector-curvature="0"
                         style="fill:none;stroke:#000000;stroke-width:11;stroke-linejoin:round" /></g></g><g
                     class="com.sun.star.drawing.CustomShape"
                     id="g158"><g
                       id="id6"><rect
                         class="BoundingBox"
                         x="8715"
                         y="2184"
                         width="369"
                         height="369"
                         id="rect161"
                         style="fill:none;stroke:none" /><g
                         id="g163"><defs
                           id="defs165"><linearGradient
                             id="gradient4"
                             x1="8899"
                             y1="2190"
                             x2="8899"
                             y2="2546"
                             gradientUnits="userSpaceOnUse"><stop
                               offset="0"
                               style="stop-color:rgb(200,220,255)"
                               id="stop168" /><stop
                               offset="1"
                               style="stop-color:rgb(235,245,255)"
                               id="stop170" /></linearGradient></defs><path
                           style="fill:url(#gradient4)"
                           d="m 8899,2190 12,0 12,1 11,2 11,3 11,3 11,4 10,5 11,6 10,6 10,7 9,7 8,8 8,8 7,9 7,10 6,10 6,11 5,10 4,11 3,11 3,11 2,11 1,12 0,12 0,12 -1,12 -2,11 -3,11 -3,11 -4,11 -5,10 -6,11 -6,10 -7,10 -7,9 -8,8 -8,8 -9,7 -10,7 -10,6 -11,6 -10,5 -11,4 -11,3 -11,3 -11,2 -12,1 -12,0 -12,0 -12,-1 -11,-2 -11,-3 -11,-3 -11,-4 -10,-5 -11,-6 -10,-6 -10,-7 -9,-7 -8,-8 -8,-8 -7,-9 -7,-10 -6,-10 -6,-11 -5,-10 -4,-11 -3,-11 -3,-11 -2,-11 -1,-12 0,-12 0,-12 1,-12 2,-11 3,-11 3,-11 4,-11 5,-10 6,-11 6,-10 7,-10 7,-9 8,-8 8,-8 9,-7 10,-7 10,-6 11,-6 10,-5 11,-4 11,-3 11,-3 11,-2 12,-1 12,0 z"
                           id="path172"
                           inkscape:connector-curvature="0" /></g><path
                         d="m 8899,2190 c 33,0 61,7 89,24 28,16 49,37 65,65 17,28 24,56 24,89 0,33 -7,61 -24,89 -16,28 -37,49 -65,65 -28,17 -56,24 -89,24 -33,0 -61,-7 -89,-24 -28,-16 -49,-37 -65,-65 -17,-28 -24,-56 -24,-89 0,-33 7,-61 24,-89 16,-28 37,-49 65,-65 28,-17 56,-24 89,-24 z"
                         id="path174"
                         inkscape:connector-curvature="0"
                         style="fill:none;stroke:#000000;stroke-width:11;stroke-linejoin:round" /></g></g></g><g
                   class="Graphic"
                   id="g176"><g
                     id="id7"><rect
                       class="BoundingBox"
                       x="8767"
                       y="2249"
                       width="268"
                       height="243"
                       id="rect179"
                       style="fill:none;stroke:none" /><path
                       d="m 8770,2490 0,0 c -2,-1 -3,-2 -3,-4 l 0,0 c 0,-2 86,-206 88,-208 l 0,0 c 2,-1 5,-1 7,2 l 0,0 c 1,1 17,26 36,55 l 0,0 c 27,42 34,53 35,53 l 0,0 c 1,-1 22,-32 47,-70 l 0,0 c 25,-37 46,-68 46,-69 l 0,0 c 1,0 2,0 4,0 l 0,0 c 2,0 3,1 4,2 l 0,0 c 1,3 0,7 -41,108 l 0,0 c -23,57 -42,106 -43,109 l 0,0 c -2,4 -5,6 -8,5 l 0,0 c -1,0 -12,-14 -37,-47 l 0,0 c -19,-26 -35,-47 -36,-47 l 0,0 c 0,0 -21,25 -47,56 l 0,0 c -39,47 -48,57 -50,56 l 0,0 c 0,0 -1,0 -2,-1 z m 203,-111 0,0 c 17,-42 31,-77 31,-77 l 0,0 c 0,0 -15,22 -34,50 l 0,0 c -35,53 -36,54 -40,51 l 0,0 c -1,0 -17,-25 -36,-53 l 0,0 c -18,-29 -34,-54 -34,-54 l 0,0 c -1,-1 -8,15 -35,78 l 0,0 c -18,43 -33,79 -33,79 l 0,0 c 1,0 16,-19 35,-41 l 0,0 c 19,-23 36,-43 37,-44 l 0,0 c 4,-5 7,-5 10,-1 l 0,0 c 2,2 18,23 36,47 l 0,0 c 18,24 32,43 32,43 l 0,0 c 1,0 15,-35 31,-78 z"
                       id="path181"
                       inkscape:connector-curvature="0"
                       style="fill:#000000;stroke:none" /></g></g></g><g
                 class="Group"
                 id="g183"><g
                   class="Group"
                   id="g185"><g
                     class="com.sun.star.drawing.CustomShape"
                     id="g187"><g
                       id="id8"><rect
                         class="BoundingBox"
                         x="9493"
                         y="2162"
                         width="413"
                         height="413"
                         id="rect190"
                         style="fill:none;stroke:none" /><g
                         id="g192"><defs
                           id="defs194"><linearGradient
                             id="gradient5"
                             x1="9699"
                             y1="2168"
                             x2="9699"
                             y2="2569"
                             gradientUnits="userSpaceOnUse"><stop
                               offset="0"
                               style="stop-color:rgb(200,220,255)"
                               id="stop197" /><stop
                               offset="1"
                               style="stop-color:rgb(235,245,255)"
                               id="stop199" /></linearGradient></defs><path
                           style="fill:url(#gradient5)"
                           d="m 9699,2168 14,0 13,1 13,2 12,3 12,4 12,4 12,6 12,6 12,8 11,7 10,8 9,9 9,9 8,10 7,11 8,12 6,12 6,12 4,12 4,12 3,12 2,13 1,13 1,14 -1,14 -1,13 -2,13 -3,12 -4,12 -4,12 -6,12 -6,12 -8,12 -7,11 -8,10 -9,9 -9,9 -10,8 -11,7 -12,8 -12,6 -12,6 -12,4 -12,4 -12,3 -13,2 -13,1 -14,1 -14,-1 -13,-1 -13,-2 -12,-3 -12,-4 -12,-4 -12,-6 -12,-6 -12,-8 -11,-7 -10,-8 -9,-9 -9,-9 -8,-10 -7,-11 -8,-12 -6,-12 -6,-12 -4,-12 -4,-12 -3,-12 -2,-13 -1,-13 0,-14 0,-14 1,-13 2,-13 3,-12 4,-12 4,-12 6,-12 6,-12 8,-12 7,-11 8,-10 9,-9 9,-9 10,-8 11,-7 12,-8 12,-6 12,-6 12,-4 12,-4 12,-3 13,-2 13,-1 14,0 z"
                           id="path201"
                           inkscape:connector-curvature="0" /></g><path
                         d="m 9699,2168 c 37,0 68,8 100,26 32,19 55,42 74,74 18,32 27,63 27,100 0,37 -9,68 -27,100 -19,32 -42,55 -74,74 -32,18 -63,27 -100,27 -37,0 -68,-9 -100,-27 -32,-19 -55,-42 -74,-74 -18,-32 -26,-63 -26,-100 0,-37 8,-68 26,-100 19,-32 42,-55 74,-74 32,-18 63,-26 100,-26 z"
                         id="path203"
                         inkscape:connector-curvature="0"
                         style="fill:none;stroke:#000000;stroke-width:11;stroke-linejoin:round" /></g></g><g
                     class="com.sun.star.drawing.CustomShape"
                     id="g205"><g
                       id="id9"><rect
                         class="BoundingBox"
                         x="9515"
                         y="2184"
                         width="369"
                         height="369"
                         id="rect208"
                         style="fill:none;stroke:none" /><g
                         id="g210"><defs
                           id="defs212"><linearGradient
                             id="gradient6"
                             x1="9699"
                             y1="2190"
                             x2="9699"
                             y2="2546"
                             gradientUnits="userSpaceOnUse"><stop
                               offset="0"
                               style="stop-color:rgb(200,220,255)"
                               id="stop215" /><stop
                               offset="1"
                               style="stop-color:rgb(235,245,255)"
                               id="stop217" /></linearGradient></defs><path
                           style="fill:url(#gradient6)"
                           d="m 9699,2190 12,0 12,1 11,2 11,3 11,3 11,4 10,5 11,6 10,6 10,7 9,7 8,8 8,8 7,9 7,10 6,10 6,11 5,10 4,11 3,11 3,11 2,11 1,12 0,12 0,12 -1,12 -2,11 -3,11 -3,11 -4,11 -5,10 -6,11 -6,10 -7,10 -7,9 -8,8 -8,8 -9,7 -10,7 -10,6 -11,6 -10,5 -11,4 -11,3 -11,3 -11,2 -12,1 -12,0 -12,0 -12,-1 -11,-2 -11,-3 -11,-3 -11,-4 -10,-5 -11,-6 -10,-6 -10,-7 -9,-7 -8,-8 -8,-8 -7,-9 -7,-10 -6,-10 -6,-11 -5,-10 -4,-11 -3,-11 -3,-11 -2,-11 -1,-12 0,-12 0,-12 1,-12 2,-11 3,-11 3,-11 4,-11 5,-10 6,-11 6,-10 7,-10 7,-9 8,-8 8,-8 9,-7 10,-7 10,-6 11,-6 10,-5 11,-4 11,-3 11,-3 11,-2 12,-1 12,0 z"
                           id="path219"
                           inkscape:connector-curvature="0" /></g><path
                         d="m 9699,2190 c 33,0 61,7 89,24 28,16 49,37 65,65 17,28 24,56 24,89 0,33 -7,61 -24,89 -16,28 -37,49 -65,65 -28,17 -56,24 -89,24 -33,0 -61,-7 -89,-24 -28,-16 -49,-37 -65,-65 -17,-28 -24,-56 -24,-89 0,-33 7,-61 24,-89 16,-28 37,-49 65,-65 28,-17 56,-24 89,-24 z"
                         id="path221"
                         inkscape:connector-curvature="0"
                         style="fill:none;stroke:#000000;stroke-width:11;stroke-linejoin:round" /></g></g></g><g
                   class="Graphic"
                   id="g223"><g
                     id="id10"><rect
                       class="BoundingBox"
                       x="9580"
                       y="2249"
                       width="242"
                       height="243"
                       id="rect226"
                       style="fill:none;stroke:none" /><path
                       d="m 9596,2475 0,0 c -12,-12 -16,-16 -16,-18 l 0,0 c 0,-1 10,-12 42,-44 l 42,-43 -42,-42 0,0 c -36,-37 -42,-43 -42,-45 l 0,0 c 0,-2 3,-5 15,-18 l 0,0 c 11,-10 17,-16 18,-16 l 0,0 c 2,0 5,2 45,42 l 43,43 42,-43 0,0 c 40,-40 43,-42 45,-42 l 0,0 c 1,0 7,6 18,16 l 0,0 c 13,13 15,16 15,18 l 0,0 c 0,2 -6,8 -42,45 l -42,42 42,43 0,0 c 36,36 42,43 42,44 l 0,0 c 0,2 -5,7 -16,18 l 0,0 c -14,14 -15,16 -18,16 l 0,0 c -2,0 -6,-3 -44,-42 l -42,-42 -42,42 0,0 c -38,37 -43,42 -45,42 l 0,0 c -2,0 -4,-2 -18,-16 z m 60,-39 0,0 c 37,-37 43,-42 45,-42 l 0,0 c 2,0 7,5 44,42 l 42,43 11,-11 11,-11 -42,-42 0,0 c -37,-37 -42,-43 -42,-45 l 0,0 c 0,-2 5,-8 42,-45 l 42,-42 -11,-11 -11,-11 -42,43 0,0 c -37,37 -42,42 -44,42 l 0,0 c -2,0 -8,-5 -45,-42 l -42,-43 -11,11 -10,11 42,42 0,0 c 36,37 42,43 42,45 l 0,0 c 0,2 -6,8 -43,45 l -42,42 11,11 0,0 c 6,6 11,10 11,10 l 0,0 c 0,0 19,-19 42,-42 z"
                       id="path228"
                       inkscape:connector-curvature="0"
                       style="fill:#000000;stroke:none" /></g></g></g></g></g></g></g></g></g></svg>