<?xml version="1.0" encoding="UTF-8" standalone="no"?>
<svg
   xmlns:dc="http://purl.org/dc/elements/1.1/"
   xmlns:cc="http://creativecommons.org/ns#"
   xmlns:rdf="http://www.w3.org/1999/02/22-rdf-syntax-ns#"
   xmlns:svg="http://www.w3.org/2000/svg"
   xmlns="http://www.w3.org/2000/svg"
   xmlns:sodipodi="http://sodipodi.sourceforge.net/DTD/sodipodi-0.dtd"
   xmlns:inkscape="http://www.inkscape.org/namespaces/inkscape"
   version="1.2"
   width="20.749998mm"
   height="11.169999mm"
   viewBox="0 0 2074.9998 1116.9999"
   preserveAspectRatio="xMidYMid"
   xml:space="preserve"
   id="svg2"
   inkscape:version="0.91 r13725"
   sodipodi:docname="activity-call.svg"
   style="fill-rule:evenodd;stroke-width:28.22200012;stroke-linejoin:round"><metadata
     id="metadata118"><rdf:RDF><cc:Work
         rdf:about=""><dc:format>image/svg+xml</dc:format><dc:type
           rdf:resource="http://purl.org/dc/dcmitype/StillImage" /><dc:title></dc:title></cc:Work></rdf:RDF></metadata><sodipodi:namedview
     pagecolor="#ffffff"
     bordercolor="#666666"
     borderopacity="1"
     objecttolerance="10"
     gridtolerance="10"
     guidetolerance="10"
     inkscape:pageopacity="0"
     inkscape:pageshadow="2"
     inkscape:window-width="828"
     inkscape:window-height="480"
     id="namedview116"
     showgrid="false"
     fit-margin-top="0"
     fit-margin-left="0"
     fit-margin-right="0"
     fit-margin-bottom="0"
     inkscape:zoom="0.22425739"
     inkscape:cx="37.063011"
     inkscape:cy="20.125953"
     inkscape:window-x="2667"
     inkscape:window-y="318"
     inkscape:window-maximized="0"
     inkscape:current-layer="svg2" /><defs
     class="ClipPathGroup"
     id="defs4"><clipPath
       id="presentation_clip_path"
       clipPathUnits="userSpaceOnUse"><rect
         x="0"
         y="0"
         width="21000"
         height="29700"
         id="rect7" /></clipPath></defs><defs
     id="defs12" /><defs
     class="TextShapeIndex"
     id="defs39" /><defs
     class="EmbeddedBulletChars"
     id="defs43" /><defs
     class="TextEmbeddedBitmaps"
     id="defs75" /><g
     id="g77"
     transform="translate(-9454,-14301)"><g
       id="id2"
       class="Master_Slide"><g
         id="bg-id2"
         class="Background" /><g
         id="bo-id2"
         class="BackgroundObjects" /></g></g><g
     class="SlideGroup"
     id="g82"
     transform="translate(-9454,-14301)"><g
       id="g84"><g
         id="container-id1"><g
           id="id1"
           class="Slide"
           clip-path="url(#presentation_clip_path)"><g
             class="Page"
             id="g88"><g
               class="com.sun.star.drawing.CustomShape"
               id="g90"><g
                 id="id3"><rect
                   class="BoundingBox"
                   x="9454"
                   y="14301"
                   width="2075"
                   height="1117"
                   id="rect93"
                   style="fill:none;stroke:none" /><g
                   id="g95"><defs
                     id="defs97"><linearGradient
                       id="gradient1"
                       x1="10491"
                       y1="14337"
                       x2="10491"
                       y2="15381"
                       gradientUnits="userSpaceOnUse"><stop
                         offset="0"
                         style="stop-color:rgb(200,220,255)"
                         id="stop100" /><stop
                         offset="1"
                         style="stop-color:rgb(235,245,255)"
                         id="stop102" /></linearGradient></defs><path
                     style="fill:url(#gradient1)"
                     d="m 9664,14337 -16,1 -16,3 -16,5 -16,6 -15,8 -14,9 -14,11 -13,11 -11,13 -11,14 -9,14 -8,15 -6,16 -5,16 -3,16 -1,16 0,696 1,16 3,16 5,16 6,16 8,15 9,14 11,14 11,13 13,11 14,11 14,9 15,8 16,6 16,5 16,3 16,1 1654,0 16,-1 16,-3 16,-5 16,-6 15,-8 14,-9 14,-11 13,-11 11,-13 11,-14 9,-14 8,-15 6,-16 5,-16 3,-16 1,-16 0,-696 -1,-16 -3,-16 -5,-16 -6,-16 -8,-15 -9,-14 -11,-14 -11,-13 -13,-11 -14,-11 -14,-9 -15,-8 -16,-6 -16,-5 -16,-3 -16,-1 -1654,0 z"
                     id="path104"
                     inkscape:connector-curvature="0" /></g><path
                   d="m 9664,14337 c -87,0 -174,87 -174,174 l 0,696 c 0,87 87,174 174,174 l 1654,0 c 87,0 174,-87 174,-174 l 0,-696 c 0,-87 -87,-174 -174,-174 l -1654,0 z"
                   id="path106"
                   inkscape:connector-curvature="0"
                   style="fill:none;stroke:#000000;stroke-width:71;stroke-linejoin:round" /><text
                   class="TextShape"
                   id="text108"><tspan
                     class="TextParagraph"
                     font-size="282px"
                     font-style="italic"
                     font-weight="400"
                     id="tspan110"
                     style="font-style:italic;font-weight:400;font-size:282px;font-family:'Comic Sans MS'"><tspan
                       class="TextPosition"
                       x="9680"
                       y="15002"
                       id="tspan112"><tspan
                         id="tspan114"
                         style="fill:#000032;stroke:none">Call Activity</tspan></tspan></tspan></text>
</g></g></g></g></g></g></g></svg>