<?xml version="1.0" encoding="UTF-8" standalone="no"?>
<svg
   xmlns:dc="http://purl.org/dc/elements/1.1/"
   xmlns:cc="http://creativecommons.org/ns#"
   xmlns:rdf="http://www.w3.org/1999/02/22-rdf-syntax-ns#"
   xmlns:svg="http://www.w3.org/2000/svg"
   xmlns="http://www.w3.org/2000/svg"
   xmlns:sodipodi="http://sodipodi.sourceforge.net/DTD/sodipodi-0.dtd"
   xmlns:inkscape="http://www.inkscape.org/namespaces/inkscape"
   version="1.2"
   width="20.219999mm"
   height="10.23mm"
   viewBox="0 0 2021.9999 1023"
   preserveAspectRatio="xMidYMid"
   xml:space="preserve"
   id="svg2"
   inkscape:version="0.91 r13725"
   sodipodi:docname="activity-task.svg"
   style="fill-rule:evenodd;stroke-width:28.22200012;stroke-linejoin:round"><metadata
     id="metadata106"><rdf:RDF><cc:Work
         rdf:about=""><dc:format>image/svg+xml</dc:format><dc:type
           rdf:resource="http://purl.org/dc/dcmitype/StillImage" /><dc:title></dc:title></cc:Work></rdf:RDF></metadata><sodipodi:namedview
     pagecolor="#ffffff"
     bordercolor="#666666"
     borderopacity="1"
     objecttolerance="10"
     gridtolerance="10"
     guidetolerance="10"
     inkscape:pageopacity="0"
     inkscape:pageshadow="2"
     inkscape:window-width="1920"
     inkscape:window-height="1017"
     id="namedview104"
     showgrid="false"
     fit-margin-top="0"
     fit-margin-left="0"
     fit-margin-right="0"
     fit-margin-bottom="0"
     inkscape:zoom="1.7940591"
     inkscape:cx="146.43147"
     inkscape:cy="51.117866"
     inkscape:window-x="-8"
     inkscape:window-y="32"
     inkscape:window-maximized="1"
     inkscape:current-layer="svg2" /><defs
     class="ClipPathGroup"
     id="defs4"><clipPath
       id="presentation_clip_path"
       clipPathUnits="userSpaceOnUse"><rect
         x="0"
         y="0"
         width="21000"
         height="29700"
         id="rect7" /></clipPath></defs><defs
     id="defs12" /><defs
     class="TextShapeIndex"
     id="defs27" /><defs
     class="EmbeddedBulletChars"
     id="defs31" /><defs
     class="TextEmbeddedBitmaps"
     id="defs63" /><g
     id="g65"
     transform="translate(-5588,-1688)"><g
       id="id2"
       class="Master_Slide"><g
         id="bg-id2"
         class="Background" /><g
         id="bo-id2"
         class="BackgroundObjects" /></g></g><g
     class="SlideGroup"
     id="g70"
     transform="translate(-5588,-1688)"><g
       id="g72"><g
         id="container-id1"><g
           id="id1"
           class="Slide"
           clip-path="url(#presentation_clip_path)"><g
             class="Page"
             id="g76"><g
               class="com.sun.star.drawing.CustomShape"
               id="g78"><g
                 id="id3"><rect
                   class="BoundingBox"
                   x="5588"
                   y="1688"
                   width="2022"
                   height="1023"
                   id="rect81"
                   style="fill:none;stroke:none" /><g
                   id="g83"><defs
                     id="defs85"><linearGradient
                       id="gradient1"
                       x1="6598"
                       y1="1698"
                       x2="6598"
                       y2="2700"
                       gradientUnits="userSpaceOnUse"><stop
                         offset="0"
                         style="stop-color:rgb(200,220,255)"
                         id="stop88" /><stop
                         offset="1"
                         style="stop-color:rgb(235,245,255)"
                         id="stop90" /></linearGradient></defs><path
                     style="fill:url(#gradient1)"
                     d="m 5765,1698 -16,1 -15,3 -16,4 -15,6 -14,8 -14,9 -13,10 -12,11 -11,12 -10,13 -9,14 -8,14 -6,15 -4,16 -3,15 -1,16 0,668 1,16 3,15 4,15 6,15 8,15 9,13 10,13 11,13 12,11 13,10 14,9 14,8 15,6 16,4 15,3 16,1 1667,0 16,-1 15,-3 15,-4 15,-6 15,-8 13,-9 13,-10 13,-11 11,-13 10,-13 9,-13 8,-15 6,-15 4,-15 3,-15 1,-16 0,-668 -1,-16 -3,-15 -4,-16 -6,-15 -8,-14 -9,-14 -10,-13 -11,-12 -13,-11 -13,-10 -13,-9 -15,-8 -15,-6 -15,-4 -15,-3 -16,-1 -1667,0 z"
                     id="path92"
                     inkscape:connector-curvature="0" /></g><path
                   d="m 5765,1698 c -84,0 -167,83 -167,167 l 0,668 c 0,83 83,167 167,167 l 1667,0 c 83,0 167,-84 167,-167 l 0,-668 c 0,-84 -84,-167 -167,-167 l -1667,0 z"
                   id="path94"
                   inkscape:connector-curvature="0"
                   style="fill:none;stroke:#000000;stroke-width:19;stroke-linejoin:round" /><text
                   class="TextShape"
                   id="text96"><tspan
                     class="TextParagraph"
                     font-size="282px"
                     font-style="italic"
                     font-weight="400"
                     id="tspan98"
                     style="font-style:italic;font-weight:400;font-size:282px;font-family:'Comic Sans MS'"><tspan
                       class="TextPosition"
                       x="6283"
                       y="2342"
                       id="tspan100"><tspan
                         id="tspan102"
                         style="fill:#000032;stroke:none">Task</tspan></tspan></tspan></text>
</g></g></g></g></g></g></g></svg>